{
	"asset":{
		"generator":"Khronos glTF Blender I/O v5.1.19",
		"version":"2.0"
	},
	"scene":0,
	"scenes":[
		{
			"name":"Scene",
			"nodes":[
				439,
				440,
				441,
				442,
				443,
				444,
				445,
				446,
				447,
				448,
				449,
				450,
				451,
				452,
				453,
				454,
				455,
				456,
				457,
				458,
				459
			]
		}
	],
	"nodes":[
		{
			"name":"AmoBox_01_2_5"
		},
		{
			"children":[
				0
			],
			"name":"AmoBox_01"
		},
		{
			"name":"AmoBox_01_2_4"
		},
		{
			"children":[
				2
			],
			"name":"AmoBox_01__1_"
		},
		{
			"name":"AmoBox_01_2"
		},
		{
			"children":[
				4
			],
			"name":"AmoBox_01__2_"
		},
		{
			"name":"AmoBox_01_2_1"
		},
		{
			"children":[
				6
			],
			"name":"AmoBox_01__3_"
		},
		{
			"name":"AmoBox_01_2_2"
		},
		{
			"children":[
				8
			],
			"name":"AmoBox_01__4_"
		},
		{
			"name":"AmoBox_01_2_3"
		},
		{
			"children":[
				10
			],
			"name":"AmoBox_01__5_"
		},
		{
			"name":"ATM"
		},
		{
			"name":"ATM_1"
		},
		{
			"name":"ATM__1_"
		},
		{
			"name":"AutoService_01_1"
		},
		{
			"name":"AutoService_01_2"
		},
		{
			"children":[
				15,
				16
			],
			"name":"AutoService_01"
		},
		{
			"name":"Bank_01__1_"
		},
		{
			"name":"Bank_01__2_"
		},
		{
			"name":"Bank_01__3_"
		},
		{
			"name":"Bank_01__4_"
		},
		{
			"name":"Bank_01__5_"
		},
		{
			"name":"Barrel_01"
		},
		{
			"name":"Barrel_01__1_"
		},
		{
			"name":"Barrel_01__2_"
		},
		{
			"name":"Barrel_01__2__1"
		},
		{
			"name":"Barrel_01__3_"
		},
		{
			"name":"Barrel_01__4_"
		},
		{
			"name":"Barrel_01__5_"
		},
		{
			"name":"Barrel_01__6_"
		},
		{
			"name":"Barrel_02"
		},
		{
			"name":"Barrel_02__1_"
		},
		{
			"name":"BG_01"
		},
		{
			"name":"BG_01__10_"
		},
		{
			"name":"BG_01__11_"
		},
		{
			"name":"BG_01__14_"
		},
		{
			"name":"BG_01__15_"
		},
		{
			"name":"BG_01__16_"
		},
		{
			"name":"BG_01__17_"
		},
		{
			"name":"BG_01__18_"
		},
		{
			"name":"BG_01__19_"
		},
		{
			"name":"BG_01__1_"
		},
		{
			"name":"BG_01__20_"
		},
		{
			"name":"BG_01__21_"
		},
		{
			"name":"BG_01__22_"
		},
		{
			"name":"BG_01__2_"
		},
		{
			"name":"BG_01__3_"
		},
		{
			"name":"BG_01__4_"
		},
		{
			"name":"BG_01__5_"
		},
		{
			"name":"BG_01__6_"
		},
		{
			"name":"BG_01__7_"
		},
		{
			"name":"BG_01__8_"
		},
		{
			"name":"BG_01__9_"
		},
		{
			"name":"BG_02"
		},
		{
			"name":"BG_02__1_"
		},
		{
			"name":"BG_02__2_"
		},
		{
			"name":"Box_01"
		},
		{
			"name":"Box_01__2_"
		},
		{
			"name":"Box_01__3_"
		},
		{
			"name":"Box_02"
		},
		{
			"name":"Box_02__1_"
		},
		{
			"name":"Box_02__8_"
		},
		{
			"name":"Box_02__9_"
		},
		{
			"name":"Box_03"
		},
		{
			"name":"Box_03_1"
		},
		{
			"name":"Box_03__10_"
		},
		{
			"name":"Box_03__11_"
		},
		{
			"name":"Box_03__14_"
		},
		{
			"name":"Box_03__15_"
		},
		{
			"name":"Box_03__16_"
		},
		{
			"name":"Box_03__17_"
		},
		{
			"name":"Box_03__18_"
		},
		{
			"name":"Box_03__19_"
		},
		{
			"name":"Box_03__2_"
		},
		{
			"name":"Box_03__3_"
		},
		{
			"name":"Box_03__4_"
		},
		{
			"name":"Box_03__5_"
		},
		{
			"name":"Box_03__6_"
		},
		{
			"name":"Box_03__7_"
		},
		{
			"name":"Box_03__8_"
		},
		{
			"name":"Box_03__9_"
		},
		{
			"name":"Church_01"
		},
		{
			"name":"CityHall_01"
		},
		{
			"mesh":0,
			"name":"CityHall_01__1__LowPolyFPS_MAIN_0"
		},
		{
			"children":[
				84
			],
			"name":"CityHall_01__1_"
		},
		{
			"name":"Construction_01__1_"
		},
		{
			"name":"Construction_01__2_"
		},
		{
			"name":"Cube"
		},
		{
			"name":"Fan_01"
		},
		{
			"name":"Fan_01_1"
		},
		{
			"name":"Fan_01__10_"
		},
		{
			"name":"Fan_01__11_"
		},
		{
			"name":"Fan_01__1_"
		},
		{
			"name":"Fan_01__1__1"
		},
		{
			"name":"Fan_01__2_"
		},
		{
			"name":"Fan_01__2__1"
		},
		{
			"name":"Fan_01__3_"
		},
		{
			"name":"Fan_01__3__1"
		},
		{
			"name":"Fan_01__4_"
		},
		{
			"name":"Fan_01__4__1"
		},
		{
			"name":"Fan_01__5_"
		},
		{
			"name":"Fan_01__6_"
		},
		{
			"name":"Fan_01__7_"
		},
		{
			"name":"Fan_01__8_"
		},
		{
			"name":"Fan_01__9_"
		},
		{
			"name":"Fence_01"
		},
		{
			"name":"Fence_01_1"
		},
		{
			"name":"Fence_01__10_"
		},
		{
			"name":"Fence_01__11_"
		},
		{
			"name":"Fence_01__12_"
		},
		{
			"name":"Fence_01__13_"
		},
		{
			"name":"Fence_01__14_"
		},
		{
			"name":"Fence_01__15_"
		},
		{
			"name":"Fence_01__16_"
		},
		{
			"name":"Fence_01__17_"
		},
		{
			"name":"Fence_01__18_"
		},
		{
			"name":"Fence_01__19_"
		},
		{
			"name":"Fence_01__1_"
		},
		{
			"name":"Fence_01__1__1"
		},
		{
			"name":"Fence_01__20_"
		},
		{
			"name":"Fence_01__21_"
		},
		{
			"name":"Fence_01__22_"
		},
		{
			"name":"Fence_01__23_"
		},
		{
			"name":"Fence_01__24_"
		},
		{
			"name":"Fence_01__25_"
		},
		{
			"name":"Fence_01__26_"
		},
		{
			"name":"Fence_01__27_"
		},
		{
			"name":"Fence_01__28_"
		},
		{
			"name":"Fence_01__29_"
		},
		{
			"name":"Fence_01__2_"
		},
		{
			"name":"Fence_01__30_"
		},
		{
			"name":"Fence_01__3_"
		},
		{
			"name":"Fence_01__4_"
		},
		{
			"name":"Fence_01__5_"
		},
		{
			"name":"Fence_01__6_"
		},
		{
			"name":"Fence_01__7_"
		},
		{
			"name":"Fence_01__8_"
		},
		{
			"name":"Fence_01__9_"
		},
		{
			"name":"Fence_02"
		},
		{
			"name":"Fence_02_1"
		},
		{
			"name":"Fence_02__1_"
		},
		{
			"name":"Fence_02__1__1"
		},
		{
			"name":"Fence_02__2_"
		},
		{
			"name":"Fence_03"
		},
		{
			"name":"Fence_03__10_"
		},
		{
			"name":"Fence_03__1_"
		},
		{
			"name":"Fence_03__2_"
		},
		{
			"name":"Fence_03__3_"
		},
		{
			"name":"Fence_03__4_"
		},
		{
			"name":"Fence_03__5_"
		},
		{
			"name":"Fence_03__6_"
		},
		{
			"name":"Fence_03__7_"
		},
		{
			"name":"Fence_03__8_"
		},
		{
			"name":"Fence_03__9_"
		},
		{
			"name":"Fence_04"
		},
		{
			"name":"FlowerBed_01"
		},
		{
			"name":"FlowerBed_01_1"
		},
		{
			"name":"FlowerBed_01__1_"
		},
		{
			"name":"FlowerBed_01__1__1"
		},
		{
			"name":"FlowerBed_01__2_"
		},
		{
			"name":"FlowerBed_01__3_"
		},
		{
			"name":"FlowerBed_01__4_"
		},
		{
			"name":"FlowerBed_01__5_"
		},
		{
			"name":"Garbage_01"
		},
		{
			"name":"Garbage_01_1"
		},
		{
			"name":"Garbage_01__1_"
		},
		{
			"name":"Garbage_01__2_"
		},
		{
			"name":"Garbage_01__3_"
		},
		{
			"name":"Gas_Station_01"
		},
		{
			"name":"Grass_01"
		},
		{
			"name":"Grass_01_1"
		},
		{
			"name":"Grass_01__1_"
		},
		{
			"name":"Grass_01__1__1"
		},
		{
			"name":"Grass_01__2_"
		},
		{
			"name":"House_01"
		},
		{
			"name":"House_01__10_"
		},
		{
			"name":"House_01__11_"
		},
		{
			"name":"House_01__1_"
		},
		{
			"name":"House_01__2_"
		},
		{
			"name":"House_01__3_"
		},
		{
			"name":"House_01__4_"
		},
		{
			"name":"House_01__5_"
		},
		{
			"name":"House_01__6_"
		},
		{
			"name":"House_01__7_"
		},
		{
			"name":"House_01__8_"
		},
		{
			"name":"House_01__9_"
		},
		{
			"name":"House_02__1_"
		},
		{
			"name":"House_02__2_"
		},
		{
			"name":"House_02__3_"
		},
		{
			"name":"House_02__4_"
		},
		{
			"name":"House_03"
		},
		{
			"name":"House_03__10_"
		},
		{
			"name":"House_03__11_"
		},
		{
			"name":"House_03__12_"
		},
		{
			"name":"House_03__13_"
		},
		{
			"name":"House_03__14_"
		},
		{
			"name":"House_03__15_"
		},
		{
			"name":"House_03__16_"
		},
		{
			"name":"House_03__1_"
		},
		{
			"name":"House_03__2_"
		},
		{
			"name":"House_03__3_"
		},
		{
			"name":"House_03__4_"
		},
		{
			"name":"House_03__5_"
		},
		{
			"name":"House_03__6_"
		},
		{
			"name":"House_03__7_"
		},
		{
			"name":"House_03__8_"
		},
		{
			"name":"House_03__9_"
		},
		{
			"name":"House_04"
		},
		{
			"name":"House_04__10_"
		},
		{
			"name":"House_04__11_"
		},
		{
			"name":"House_04__12_"
		},
		{
			"name":"House_04__13_"
		},
		{
			"name":"House_04__1_"
		},
		{
			"name":"House_04__2_"
		},
		{
			"name":"House_04__3_"
		},
		{
			"name":"House_04__4_"
		},
		{
			"name":"House_04__5_"
		},
		{
			"name":"House_04__6_"
		},
		{
			"name":"House_04__7_"
		},
		{
			"name":"House_04__8_"
		},
		{
			"name":"House_04__9_"
		},
		{
			"name":"House_05"
		},
		{
			"name":"House_05__1_"
		},
		{
			"name":"House_05__2_"
		},
		{
			"name":"House_05__3_"
		},
		{
			"name":"House_06"
		},
		{
			"name":"House_06__1_"
		},
		{
			"name":"House_06__2_"
		},
		{
			"name":"House_06__3_"
		},
		{
			"name":"House_06__4_"
		},
		{
			"name":"House_07"
		},
		{
			"name":"House_07_Door01_2"
		},
		{
			"children":[
				232
			],
			"name":"House_07__1_"
		},
		{
			"name":"House_07_Door01_1"
		},
		{
			"children":[
				234
			],
			"name":"House_07__2_"
		},
		{
			"name":"House_07_Door01"
		},
		{
			"children":[
				236
			],
			"name":"House_07__3_"
		},
		{
			"name":"House_08"
		},
		{
			"name":"House_08__1_"
		},
		{
			"name":"Hydrant"
		},
		{
			"name":"Hydrant__1_"
		},
		{
			"name":"Hydrant__2_"
		},
		{
			"name":"Light_01"
		},
		{
			"name":"Light_01_1"
		},
		{
			"name":"Light_01__10_"
		},
		{
			"name":"Light_01__11_"
		},
		{
			"name":"Light_01__1_"
		},
		{
			"name":"Light_01__1__1"
		},
		{
			"name":"Light_01__2_"
		},
		{
			"name":"Light_01__2__1"
		},
		{
			"name":"Light_01__3_"
		},
		{
			"name":"Light_01__4_"
		},
		{
			"name":"Light_01__5_"
		},
		{
			"name":"Light_01__6_"
		},
		{
			"name":"Light_01__7_"
		},
		{
			"name":"Light_01__8_"
		},
		{
			"name":"Light_01__9_"
		},
		{
			"name":"Luke_01"
		},
		{
			"name":"Luke_01_1"
		},
		{
			"name":"Luke_01__1_"
		},
		{
			"name":"Luke_01__2_"
		},
		{
			"name":"met_case"
		},
		{
			"name":"Mud_01"
		},
		{
			"name":"Mud_02"
		},
		{
			"name":"Office_01"
		},
		{
			"name":"Office_01__1_"
		},
		{
			"name":"Pallet_02"
		},
		{
			"name":"Pallet_02__3_"
		},
		{
			"name":"Pallet_02__4_"
		},
		{
			"name":"Parking_01_2"
		},
		{
			"children":[
				270
			],
			"name":"Parking_01"
		},
		{
			"name":"ParkingBG_01"
		},
		{
			"name":"Plane"
		},
		{
			"name":"Plane__1_"
		},
		{
			"name":"Plant_01"
		},
		{
			"name":"Plant_01_1"
		},
		{
			"name":"Plant_01__1_"
		},
		{
			"name":"Plant_01__2_"
		},
		{
			"name":"Plant_01__3_"
		},
		{
			"name":"Plant_01__4_"
		},
		{
			"name":"PowerLines_01"
		},
		{
			"name":"PowerLines_01__10_"
		},
		{
			"name":"PowerLines_01__11_"
		},
		{
			"name":"PowerLines_01__12_"
		},
		{
			"name":"PowerLines_01__13_"
		},
		{
			"name":"PowerLines_01__14_"
		},
		{
			"name":"PowerLines_01__15_"
		},
		{
			"name":"PowerLines_01__16_"
		},
		{
			"name":"PowerLines_01__17_"
		},
		{
			"name":"PowerLines_01__18_"
		},
		{
			"name":"PowerLines_01__19_"
		},
		{
			"name":"PowerLines_01__1_"
		},
		{
			"name":"PowerLines_01__2_"
		},
		{
			"name":"PowerLines_01__3_"
		},
		{
			"name":"PowerLines_01__4_"
		},
		{
			"name":"PowerLines_01__5_"
		},
		{
			"name":"PowerLines_01__6_"
		},
		{
			"name":"PowerLines_01__7_"
		},
		{
			"name":"PowerLines_01__8_"
		},
		{
			"name":"PowerLines_01__9_"
		},
		{
			"name":"PowerLines_02"
		},
		{
			"name":"PowerLines_02__10_"
		},
		{
			"name":"PowerLines_02__11_"
		},
		{
			"name":"PowerLines_02__12_"
		},
		{
			"name":"PowerLines_02__13_"
		},
		{
			"name":"PowerLines_02__14_"
		},
		{
			"name":"PowerLines_02__15_"
		},
		{
			"name":"PowerLines_02__16_"
		},
		{
			"name":"PowerLines_02__17_"
		},
		{
			"name":"PowerLines_02__18_"
		},
		{
			"name":"PowerLines_02__19_"
		},
		{
			"name":"PowerLines_02__1_"
		},
		{
			"name":"PowerLines_02__20_"
		},
		{
			"name":"PowerLines_02__21_"
		},
		{
			"name":"PowerLines_02__22_"
		},
		{
			"name":"PowerLines_02__23_"
		},
		{
			"name":"PowerLines_02__24_"
		},
		{
			"name":"PowerLines_02__25_"
		},
		{
			"name":"PowerLines_02__26_"
		},
		{
			"name":"PowerLines_02__27_"
		},
		{
			"name":"PowerLines_02__28_"
		},
		{
			"name":"PowerLines_02__29_"
		},
		{
			"name":"PowerLines_02__2_"
		},
		{
			"name":"PowerLines_02__30_"
		},
		{
			"name":"PowerLines_02__31_"
		},
		{
			"name":"PowerLines_02__32_"
		},
		{
			"name":"PowerLines_02__33_"
		},
		{
			"name":"PowerLines_02__34_"
		},
		{
			"name":"PowerLines_02__35_"
		},
		{
			"name":"PowerLines_02__36_"
		},
		{
			"name":"PowerLines_02__37_"
		},
		{
			"name":"PowerLines_02__38_"
		},
		{
			"name":"PowerLines_02__39_"
		},
		{
			"name":"PowerLines_02__3_"
		},
		{
			"name":"PowerLines_02__4_"
		},
		{
			"name":"PowerLines_02__5_"
		},
		{
			"name":"PowerLines_02__6_"
		},
		{
			"name":"PowerLines_02__7_"
		},
		{
			"name":"PowerLines_02__8_"
		},
		{
			"name":"PowerLines_02__9_"
		},
		{
			"name":"Road_01"
		},
		{
			"name":"Road_01__11_"
		},
		{
			"name":"Road_01__12_"
		},
		{
			"name":"Road_01__13_"
		},
		{
			"name":"Road_01__14_"
		},
		{
			"name":"Road_01__15_"
		},
		{
			"name":"Road_01__16_"
		},
		{
			"name":"Road_01__17_"
		},
		{
			"name":"Road_01__18_"
		},
		{
			"name":"Road_01__19_"
		},
		{
			"name":"Road_01__20_"
		},
		{
			"name":"Road_01__3_"
		},
		{
			"name":"Road_01__4_"
		},
		{
			"name":"Road_01__7_"
		},
		{
			"name":"Road_02"
		},
		{
			"name":"Road_02__10_"
		},
		{
			"name":"Road_02__11_"
		},
		{
			"name":"Road_02__12_"
		},
		{
			"name":"Road_02__13_"
		},
		{
			"name":"Road_02__2_"
		},
		{
			"name":"Road_02__6_"
		},
		{
			"name":"Road_02__7_"
		},
		{
			"name":"Road_02__8_"
		},
		{
			"name":"Road_02__9_"
		},
		{
			"name":"Road_04"
		},
		{
			"name":"Road_04__1_"
		},
		{
			"name":"Road_05"
		},
		{
			"name":"Road_06"
		},
		{
			"name":"Road_06__1_"
		},
		{
			"name":"RoadPart_03"
		},
		{
			"name":"RoadPart_05"
		},
		{
			"name":"RoadPart_05__1_"
		},
		{
			"name":"RoadPart_06"
		},
		{
			"name":"RoadPart_07__1_"
		},
		{
			"name":"RoadPart_07__3_"
		},
		{
			"name":"RoadSign_01"
		},
		{
			"name":"RoadSign_01__1_"
		},
		{
			"name":"Rock_01"
		},
		{
			"name":"Rock_01_1"
		},
		{
			"name":"Rock_01__1_"
		},
		{
			"name":"Rock_01__2_"
		},
		{
			"name":"Rock_01__3_"
		},
		{
			"name":"Roof_01"
		},
		{
			"name":"Roof_01__1_"
		},
		{
			"name":"Shrek"
		},
		{
			"name":"Stairs_01"
		},
		{
			"name":"Stairs_01__1_"
		},
		{
			"name":"Stairs_01__2_"
		},
		{
			"name":"Stairs_01__3_"
		},
		{
			"name":"Trash_01"
		},
		{
			"name":"Trash_01__1_"
		},
		{
			"name":"Trash_01__2_"
		},
		{
			"name":"Trash_01__3_"
		},
		{
			"name":"Trash_01__4_"
		},
		{
			"name":"Trash_01__5_"
		},
		{
			"name":"Trash_02"
		},
		{
			"name":"Trash_02_1"
		},
		{
			"name":"Trash_02__1_"
		},
		{
			"name":"Trash_02__2_"
		},
		{
			"name":"Trash_02__3_"
		},
		{
			"name":"Trash_02__4_"
		},
		{
			"name":"Tree_01"
		},
		{
			"name":"Tree_01__1_"
		},
		{
			"name":"Tree_01__2_"
		},
		{
			"name":"Tree_01__3_"
		},
		{
			"name":"Tree_01__4_"
		},
		{
			"name":"Tree_01__5_"
		},
		{
			"name":"Tree_01__6_"
		},
		{
			"name":"Tree_01__7_"
		},
		{
			"name":"Tree_01__8_"
		},
		{
			"name":"Tree_01__9_"
		},
		{
			"name":"Tree_02"
		},
		{
			"name":"Tree_02_1"
		},
		{
			"name":"Tree_02__10_"
		},
		{
			"name":"Tree_02__1_"
		},
		{
			"name":"Tree_02__1__1"
		},
		{
			"name":"Tree_02__2_"
		},
		{
			"name":"Tree_02__3_"
		},
		{
			"name":"Tree_02__4_"
		},
		{
			"name":"Tree_02__5_"
		},
		{
			"name":"Tree_02__6_"
		},
		{
			"name":"Tree_02__7_"
		},
		{
			"name":"Tree_02__8_"
		},
		{
			"name":"Tree_02__9_"
		},
		{
			"name":"Wheel_01"
		},
		{
			"name":"Wheel_01__1_"
		},
		{
			"name":"Wheel_01__2_"
		},
		{
			"name":"Wheel_01__3_"
		},
		{
			"name":"Wheel_02__2_"
		},
		{
			"name":"Wheel_02__3_"
		},
		{
			"name":"Armature"
		},
		{
			"name":"Object_881"
		},
		{
			"children":[
				432
			],
			"name":"Object_880"
		},
		{
			"children":[
				433
			],
			"name":"Point_light"
		},
		{
			"children":[
				431,
				434
			],
			"name":"Zombie_mine"
		},
		{
			"children":[
				1,
				3,
				5,
				7,
				9,
				11,
				12,
				13,
				14,
				17,
				18,
				19,
				20,
				21,
				22,
				23,
				24,
				25,
				26,
				27,
				28,
				29,
				30,
				31,
				32,
				33,
				34,
				35,
				36,
				37,
				38,
				39,
				40,
				41,
				42,
				43,
				44,
				45,
				46,
				47,
				48,
				49,
				50,
				51,
				52,
				53,
				54,
				55,
				56,
				57,
				58,
				59,
				60,
				61,
				62,
				63,
				64,
				65,
				66,
				67,
				68,
				69,
				70,
				71,
				72,
				73,
				74,
				75,
				76,
				77,
				78,
				79,
				80,
				81,
				82,
				83,
				85,
				86,
				87,
				88,
				89,
				90,
				91,
				92,
				93,
				94,
				95,
				96,
				97,
				98,
				99,
				100,
				101,
				102,
				103,
				104,
				105,
				106,
				107,
				108,
				109,
				110,
				111,
				112,
				113,
				114,
				115,
				116,
				117,
				118,
				119,
				120,
				121,
				122,
				123,
				124,
				125,
				126,
				127,
				128,
				129,
				130,
				131,
				132,
				133,
				134,
				135,
				136,
				137,
				138,
				139,
				140,
				141,
				142,
				143,
				144,
				145,
				146,
				147,
				148,
				149,
				150,
				151,
				152,
				153,
				154,
				155,
				156,
				157,
				158,
				159,
				160,
				161,
				162,
				163,
				164,
				165,
				166,
				167,
				168,
				169,
				170,
				171,
				172,
				173,
				174,
				175,
				176,
				177,
				178,
				179,
				180,
				181,
				182,
				183,
				184,
				185,
				186,
				187,
				188,
				189,
				190,
				191,
				192,
				193,
				194,
				195,
				196,
				197,
				198,
				199,
				200,
				201,
				202,
				203,
				204,
				205,
				206,
				207,
				208,
				209,
				210,
				211,
				212,
				213,
				214,
				215,
				216,
				217,
				218,
				219,
				220,
				221,
				222,
				223,
				224,
				225,
				226,
				227,
				228,
				229,
				230,
				231,
				233,
				235,
				237,
				238,
				239,
				240,
				241,
				242,
				243,
				244,
				245,
				246,
				247,
				248,
				249,
				250,
				251,
				252,
				253,
				254,
				255,
				256,
				257,
				258,
				259,
				260,
				261,
				262,
				263,
				264,
				265,
				266,
				267,
				268,
				269,
				271,
				272,
				273,
				274,
				275,
				276,
				277,
				278,
				279,
				280,
				281,
				282,
				283,
				284,
				285,
				286,
				287,
				288,
				289,
				290,
				291,
				292,
				293,
				294,
				295,
				296,
				297,
				298,
				299,
				300,
				301,
				302,
				303,
				304,
				305,
				306,
				307,
				308,
				309,
				310,
				311,
				312,
				313,
				314,
				315,
				316,
				317,
				318,
				319,
				320,
				321,
				322,
				323,
				324,
				325,
				326,
				327,
				328,
				329,
				330,
				331,
				332,
				333,
				334,
				335,
				336,
				337,
				338,
				339,
				340,
				341,
				342,
				343,
				344,
				345,
				346,
				347,
				348,
				349,
				350,
				351,
				352,
				353,
				354,
				355,
				356,
				357,
				358,
				359,
				360,
				361,
				362,
				363,
				364,
				365,
				366,
				367,
				368,
				369,
				370,
				371,
				372,
				373,
				374,
				375,
				376,
				377,
				378,
				379,
				380,
				381,
				382,
				383,
				384,
				385,
				386,
				387,
				388,
				389,
				390,
				391,
				392,
				393,
				394,
				395,
				396,
				397,
				398,
				399,
				400,
				401,
				402,
				403,
				404,
				405,
				406,
				407,
				408,
				409,
				410,
				411,
				412,
				413,
				414,
				415,
				416,
				417,
				418,
				419,
				420,
				421,
				422,
				423,
				424,
				425,
				426,
				427,
				428,
				429,
				430,
				435
			],
			"name":"GameObject_3"
		},
		{
			"children":[
				436
			],
			"name":"RootNode"
		},
		{
			"children":[
				437
			],
			"name":"441a89883f0d4023a902cbea2807e513.fbx"
		},
		{
			"children":[
				438
			],
			"name":"Sketchfab_model"
		},
		{
			"mesh":1,
			"name":"Object_911"
		},
		{
			"mesh":2,
			"name":"Object_913"
		},
		{
			"mesh":3,
			"name":"Object_915"
		},
		{
			"mesh":4,
			"name":"Object_917"
		},
		{
			"mesh":5,
			"name":"Object_919"
		},
		{
			"mesh":6,
			"name":"Object_921"
		},
		{
			"name":"Object_910"
		},
		{
			"name":"Object_912"
		},
		{
			"name":"Object_914"
		},
		{
			"name":"Object_916"
		},
		{
			"name":"Object_918"
		},
		{
			"name":"Object_920"
		},
		{
			"mesh":7,
			"name":"Object_926"
		},
		{
			"mesh":8,
			"name":"Object_928"
		},
		{
			"mesh":9,
			"name":"Object_930"
		},
		{
			"mesh":10,
			"name":"Object_932"
		},
		{
			"name":"Object_925"
		},
		{
			"name":"Object_927"
		},
		{
			"name":"Object_929"
		},
		{
			"name":"Object_931"
		}
	],
	"materials":[
		{
			"doubleSided":true,
			"name":"LowPolyFPS_MAIN",
			"pbrMetallicRoughness":{
				"baseColorTexture":{
					"index":0
				},
				"metallicFactor":0,
				"roughnessFactor":0.6000000238418579
			}
		},
		{
			"doubleSided":true,
			"name":"LowPolyFPS_Glass",
			"pbrMetallicRoughness":{
				"baseColorFactor":[
					0.45109501481056213,
					0.6781709790229797,
					0.8773580193519592,
					1
				],
				"metallicFactor":0,
				"roughnessFactor":0.6000000238418579
			}
		},
		{
			"doubleSided":true,
			"name":"maib",
			"pbrMetallicRoughness":{
				"baseColorTexture":{
					"index":1
				},
				"metallicFactor":0,
				"roughnessFactor":0.6000000238418579
			}
		},
		{
			"doubleSided":true,
			"name":"photo_2024_12_13_16_57_40",
			"pbrMetallicRoughness":{
				"baseColorTexture":{
					"index":2
				},
				"metallicFactor":0,
				"roughnessFactor":0.6000000238418579
			}
		},
		{
			"doubleSided":true,
			"name":"metkeys",
			"pbrMetallicRoughness":{
				"baseColorTexture":{
					"index":3
				},
				"metallicFactor":0,
				"roughnessFactor":0.6000000238418579
			}
		},
		{
			"doubleSided":true,
			"name":"photo_2024_04_16_23_35_43",
			"pbrMetallicRoughness":{
				"baseColorTexture":{
					"index":4
				},
				"metallicFactor":0,
				"roughnessFactor":0.6000000238418579
			}
		},
		{
			"doubleSided":true,
			"name":"zombie",
			"pbrMetallicRoughness":{
				"baseColorTexture":{
					"index":5
				},
				"metallicFactor":0,
				"roughnessFactor":0.6000000238418579
			}
		},
		{
			"doubleSided":true,
			"name":"Shrek_Head_Legs",
			"pbrMetallicRoughness":{
				"baseColorTexture":{
					"index":6
				},
				"metallicFactor":0,
				"roughnessFactor":0.6000000238418579
			}
		},
		{
			"doubleSided":true,
			"name":"Shrek_Body",
			"pbrMetallicRoughness":{
				"baseColorTexture":{
					"index":7
				},
				"metallicFactor":0,
				"roughnessFactor":0.6000000238418579
			}
		}
	],
	"meshes":[
		{
			"name":"CityHall_01__1__LowPolyFPS_MAIN_0",
			"primitives":[
				{
					"attributes":{
						"POSITION":0,
						"NORMAL":1,
						"TEXCOORD_0":2,
						"TEXCOORD_1":3
					},
					"indices":4,
					"material":0
				},
				{
					"attributes":{
						"POSITION":5,
						"NORMAL":6,
						"TEXCOORD_0":7,
						"TEXCOORD_1":8
					},
					"indices":9,
					"material":1
				},
				{
					"attributes":{
						"POSITION":10,
						"NORMAL":11,
						"TEXCOORD_0":12,
						"TEXCOORD_1":13
					},
					"indices":14,
					"material":2
				},
				{
					"attributes":{
						"POSITION":15,
						"NORMAL":16,
						"TEXCOORD_0":17,
						"TEXCOORD_1":18
					},
					"indices":19,
					"material":3
				},
				{
					"attributes":{
						"POSITION":20,
						"NORMAL":21,
						"TEXCOORD_0":22,
						"TEXCOORD_1":23
					},
					"indices":24,
					"material":4
				},
				{
					"attributes":{
						"POSITION":25,
						"NORMAL":26,
						"TEXCOORD_0":27,
						"TEXCOORD_1":28
					},
					"indices":29,
					"material":5
				}
			]
		},
		{
			"name":"Body_zombie_0",
			"primitives":[
				{
					"attributes":{
						"POSITION":30,
						"NORMAL":31,
						"TEXCOORD_0":32
					},
					"indices":19,
					"material":6
				}
			]
		},
		{
			"name":"Head_2_zombie_0",
			"primitives":[
				{
					"attributes":{
						"POSITION":33,
						"NORMAL":34,
						"TEXCOORD_0":35
					},
					"indices":19,
					"material":6
				}
			]
		},
		{
			"name":"LArm_2_zombie_0",
			"primitives":[
				{
					"attributes":{
						"POSITION":36,
						"NORMAL":37,
						"TEXCOORD_0":38
					},
					"indices":19,
					"material":6
				}
			]
		},
		{
			"name":"LLeg_2_zombie_0",
			"primitives":[
				{
					"attributes":{
						"POSITION":39,
						"NORMAL":40,
						"TEXCOORD_0":41
					},
					"indices":19,
					"material":6
				}
			]
		},
		{
			"name":"RArm_2_zombie_0",
			"primitives":[
				{
					"attributes":{
						"POSITION":42,
						"NORMAL":43,
						"TEXCOORD_0":44
					},
					"indices":19,
					"material":6
				}
			]
		},
		{
			"name":"RLeg_2_zombie_0",
			"primitives":[
				{
					"attributes":{
						"POSITION":45,
						"NORMAL":46,
						"TEXCOORD_0":47
					},
					"indices":19,
					"material":6
				}
			]
		},
		{
			"name":"Mesh_0103_Shrek_Head_Legs_0",
			"primitives":[
				{
					"attributes":{
						"POSITION":48,
						"NORMAL":49,
						"TEXCOORD_0":50
					},
					"indices":51,
					"material":7
				}
			]
		},
		{
			"name":"Mesh_0105_Shrek_Body_0",
			"primitives":[
				{
					"attributes":{
						"POSITION":52,
						"NORMAL":53,
						"TEXCOORD_0":54
					},
					"indices":55,
					"material":8
				}
			]
		},
		{
			"name":"Mesh_0106_Shrek_Body_0",
			"primitives":[
				{
					"attributes":{
						"POSITION":56,
						"NORMAL":57,
						"TEXCOORD_0":58
					},
					"indices":59,
					"material":8
				}
			]
		},
		{
			"name":"Mesh_0104_Shrek_Head_Legs_0",
			"primitives":[
				{
					"attributes":{
						"POSITION":60,
						"NORMAL":61,
						"TEXCOORD_0":62
					},
					"indices":63,
					"material":7
				}
			]
		}
	],
	"textures":[
		{
			"sampler":0,
			"source":0
		},
		{
			"sampler":0,
			"source":1
		},
		{
			"sampler":0,
			"source":2
		},
		{
			"sampler":0,
			"source":3
		},
		{
			"sampler":0,
			"source":4
		},
		{
			"sampler":0,
			"source":5
		},
		{
			"sampler":0,
			"source":6
		},
		{
			"sampler":0,
			"source":7
		}
	],
	"images":[
		{
			"mimeType":"image/png",
			"name":"LowPolyFPS_MAIN_baseColor",
			"uri":"LowPolyFPS_MAIN_baseColor.png"
		},
		{
			"mimeType":"image/png",
			"name":"maib_baseColor",
			"uri":"maib_baseColor.png"
		},
		{
			"mimeType":"image/png",
			"name":"photo_2024_12_13_16_57_40_baseColor",
			"uri":"photo_2024_12_13_16_57_40_baseColor.png"
		},
		{
			"mimeType":"image/png",
			"name":"metkeys_baseColor",
			"uri":"metkeys_baseColor.png"
		},
		{
			"mimeType":"image/png",
			"name":"photo_2024_04_16_23_35_43_baseColor",
			"uri":"photo_2024_04_16_23_35_43_baseColor.png"
		},
		{
			"mimeType":"image/png",
			"name":"zombie_baseColor",
			"uri":"zombie_baseColor.png"
		},
		{
			"mimeType":"image/png",
			"name":"Shrek_Head_Legs_baseColor",
			"uri":"Shrek_Head_Legs_baseColor.png"
		},
		{
			"mimeType":"image/png",
			"name":"Shrek_Body_baseColor",
			"uri":"Shrek_Body_baseColor.png"
		}
	],
	"accessors":[
		{
			"bufferView":0,
			"componentType":5126,
			"count":563970,
			"max":[
				67.7652816772461,
				19.30600357055664,
				73.4103012084961
			],
			"min":[
				-67.7652816772461,
				-19.283214569091797,
				-73.41028594970703
			],
			"type":"VEC3"
		},
		{
			"bufferView":1,
			"componentType":5126,
			"count":563970,
			"type":"VEC3"
		},
		{
			"bufferView":2,
			"componentType":5126,
			"count":563970,
			"type":"VEC2"
		},
		{
			"bufferView":3,
			"componentType":5126,
			"count":563970,
			"type":"VEC2"
		},
		{
			"bufferView":4,
			"componentType":5125,
			"count":915480,
			"type":"SCALAR"
		},
		{
			"bufferView":5,
			"componentType":5126,
			"count":1181,
			"max":[
				29.311717987060547,
				-15.609556198120117,
				25.71379852294922
			],
			"min":[
				-42.57917022705078,
				-17.848791122436523,
				-40.585018157958984
			],
			"type":"VEC3"
		},
		{
			"bufferView":6,
			"componentType":5126,
			"count":1181,
			"type":"VEC3"
		},
		{
			"bufferView":7,
			"componentType":5126,
			"count":1181,
			"type":"VEC2"
		},
		{
			"bufferView":8,
			"componentType":5126,
			"count":1181,
			"type":"VEC2"
		},
		{
			"bufferView":9,
			"componentType":5123,
			"count":1872,
			"type":"SCALAR"
		},
		{
			"bufferView":10,
			"componentType":5126,
			"count":130,
			"max":[
				-22.039831161499023,
				-17.752126693725586,
				-19.357585906982422
			],
			"min":[
				-22.228731155395508,
				-17.779783248901367,
				-19.544448852539062
			],
			"type":"VEC3"
		},
		{
			"bufferView":11,
			"componentType":5126,
			"count":130,
			"type":"VEC3"
		},
		{
			"bufferView":12,
			"componentType":5126,
			"count":130,
			"type":"VEC2"
		},
		{
			"bufferView":13,
			"componentType":5126,
			"count":130,
			"type":"VEC2"
		},
		{
			"bufferView":14,
			"componentType":5123,
			"count":600,
			"type":"SCALAR"
		},
		{
			"bufferView":15,
			"componentType":5126,
			"count":24,
			"max":[
				-25.963865280151367,
				-17.25446891784668,
				14.203371047973633
			],
			"min":[
				-26.424699783325195,
				-17.764841079711914,
				14.197011947631836
			],
			"type":"VEC3"
		},
		{
			"bufferView":16,
			"componentType":5126,
			"count":24,
			"type":"VEC3"
		},
		{
			"bufferView":17,
			"componentType":5126,
			"count":24,
			"type":"VEC2"
		},
		{
			"bufferView":18,
			"componentType":5126,
			"count":24,
			"type":"VEC2"
		},
		{
			"bufferView":19,
			"componentType":5123,
			"count":36,
			"type":"SCALAR"
		},
		{
			"bufferView":20,
			"componentType":5126,
			"count":1152,
			"max":[
				-8.222797393798828,
				-17.48378562927246,
				-41.00518798828125
			],
			"min":[
				-8.472437858581543,
				-17.712234497070312,
				-41.47825622558594
			],
			"type":"VEC3"
		},
		{
			"bufferView":21,
			"componentType":5126,
			"count":1152,
			"type":"VEC3"
		},
		{
			"bufferView":22,
			"componentType":5126,
			"count":1152,
			"type":"VEC2"
		},
		{
			"bufferView":23,
			"componentType":5126,
			"count":1152,
			"type":"VEC2"
		},
		{
			"bufferView":24,
			"componentType":5123,
			"count":1326,
			"type":"SCALAR"
		},
		{
			"bufferView":25,
			"componentType":5126,
			"count":486,
			"max":[
				-21.809829711914062,
				-17.75229835510254,
				-19.33401107788086
			],
			"min":[
				-22.02233123779297,
				-17.783411026000977,
				-19.54422378540039
			],
			"type":"VEC3"
		},
		{
			"bufferView":26,
			"componentType":5126,
			"count":486,
			"type":"VEC3"
		},
		{
			"bufferView":27,
			"componentType":5126,
			"count":486,
			"type":"VEC2"
		},
		{
			"bufferView":28,
			"componentType":5126,
			"count":486,
			"type":"VEC2"
		},
		{
			"bufferView":29,
			"componentType":5123,
			"count":600,
			"type":"SCALAR"
		},
		{
			"bufferView":30,
			"componentType":5126,
			"count":24,
			"max":[
				-51.93046951293945,
				-61.126792907714844,
				-126.8880615234375
			],
			"min":[
				-52.37303924560547,
				-61.7906494140625,
				-127.10934448242188
			],
			"type":"VEC3"
		},
		{
			"bufferView":31,
			"componentType":5126,
			"count":24,
			"type":"VEC3"
		},
		{
			"bufferView":32,
			"componentType":5126,
			"count":24,
			"type":"VEC2"
		},
		{
			"bufferView":33,
			"componentType":5126,
			"count":24,
			"max":[
				-51.377254486083984,
				787.248779296875,
				-275.5819396972656
			],
			"min":[
				-51.81982421875,
				780.5675048828125,
				-278.2515869140625
			],
			"type":"VEC3"
		},
		{
			"bufferView":34,
			"componentType":5126,
			"count":24,
			"type":"VEC3"
		},
		{
			"bufferView":35,
			"componentType":5126,
			"count":24,
			"type":"VEC2"
		},
		{
			"bufferView":36,
			"componentType":5126,
			"count":24,
			"max":[
				323.81268310546875,
				-61.12678527832031,
				-126.55615234375
			],
			"min":[
				319.3585205078125,
				-61.7906494140625,
				-126.7774429321289
			],
			"type":"VEC3"
		},
		{
			"bufferView":37,
			"componentType":5126,
			"count":24,
			"type":"VEC3"
		},
		{
			"bufferView":38,
			"componentType":5126,
			"count":24,
			"type":"VEC2"
		},
		{
			"bufferView":39,
			"componentType":5126,
			"count":24,
			"max":[
				337.17510986328125,
				-61.12677764892578,
				-126.77745056152344
			],
			"min":[
				332.7209167480469,
				-61.79064178466797,
				-126.99873352050781
			],
			"type":"VEC3"
		},
		{
			"bufferView":40,
			"componentType":5126,
			"count":24,
			"type":"VEC3"
		},
		{
			"bufferView":41,
			"componentType":5126,
			"count":24,
			"type":"VEC2"
		},
		{
			"bufferView":42,
			"componentType":5126,
			"count":24,
			"max":[
				323.81256103515625,
				-61.126800537109375,
				-127.21995544433594
			],
			"min":[
				319.3583984375,
				-61.79065704345703,
				-127.44124603271484
			],
			"type":"VEC3"
		},
		{
			"bufferView":43,
			"componentType":5126,
			"count":24,
			"type":"VEC3"
		},
		{
			"bufferView":44,
			"componentType":5126,
			"count":24,
			"type":"VEC2"
		},
		{
			"bufferView":45,
			"componentType":5126,
			"count":24,
			"max":[
				337.1750793457031,
				-61.126792907714844,
				-126.9986801147461
			],
			"min":[
				332.7208557128906,
				-61.7906494140625,
				-127.21996307373047
			],
			"type":"VEC3"
		},
		{
			"bufferView":46,
			"componentType":5126,
			"count":24,
			"type":"VEC3"
		},
		{
			"bufferView":47,
			"componentType":5126,
			"count":24,
			"type":"VEC2"
		},
		{
			"bufferView":48,
			"componentType":5126,
			"count":796,
			"max":[
				-12.072900772094727,
				-27.304750442504883,
				-20.876380920410156
			],
			"min":[
				-12.660667419433594,
				-28.866500854492188,
				-21.375722885131836
			],
			"type":"VEC3"
		},
		{
			"bufferView":49,
			"componentType":5126,
			"count":796,
			"type":"VEC3"
		},
		{
			"bufferView":50,
			"componentType":5126,
			"count":796,
			"type":"VEC2"
		},
		{
			"bufferView":51,
			"componentType":5123,
			"count":3192,
			"type":"SCALAR"
		},
		{
			"bufferView":52,
			"componentType":5126,
			"count":754,
			"max":[
				-11.452255249023438,
				-27.51566505432129,
				-20.861526489257812
			],
			"min":[
				-13.305633544921875,
				-28.400243759155273,
				-21.42540168762207
			],
			"type":"VEC3"
		},
		{
			"bufferView":53,
			"componentType":5126,
			"count":754,
			"type":"VEC3"
		},
		{
			"bufferView":54,
			"componentType":5126,
			"count":754,
			"type":"VEC2"
		},
		{
			"bufferView":55,
			"componentType":5123,
			"count":2715,
			"type":"SCALAR"
		},
		{
			"bufferView":56,
			"componentType":5126,
			"count":252,
			"max":[
				-11.419593811035156,
				-28.102642059326172,
				-20.958505630493164
			],
			"min":[
				-11.66480827331543,
				-28.322059631347656,
				-21.290359497070312
			],
			"type":"VEC3"
		},
		{
			"bufferView":57,
			"componentType":5126,
			"count":252,
			"type":"VEC3"
		},
		{
			"bufferView":58,
			"componentType":5126,
			"count":252,
			"type":"VEC2"
		},
		{
			"bufferView":59,
			"componentType":5123,
			"count":1005,
			"type":"SCALAR"
		},
		{
			"bufferView":60,
			"componentType":5126,
			"count":52,
			"max":[
				-11.419275283813477,
				-28.214550018310547,
				-20.93267250061035
			],
			"min":[
				-13.305187225341797,
				-28.3492488861084,
				-21.290359497070312
			],
			"type":"VEC3"
		},
		{
			"bufferView":61,
			"componentType":5126,
			"count":52,
			"type":"VEC3"
		},
		{
			"bufferView":62,
			"componentType":5126,
			"count":52,
			"type":"VEC2"
		},
		{
			"bufferView":63,
			"componentType":5123,
			"count":84,
			"type":"SCALAR"
		}
	],
	"bufferViews":[
		{
			"buffer":0,
			"byteLength":6767640,
			"byteOffset":0,
			"target":34962
		},
		{
			"buffer":0,
			"byteLength":6767640,
			"byteOffset":6767640,
			"target":34962
		},
		{
			"buffer":0,
			"byteLength":4511760,
			"byteOffset":13535280,
			"target":34962
		},
		{
			"buffer":0,
			"byteLength":4511760,
			"byteOffset":18047040,
			"target":34962
		},
		{
			"buffer":0,
			"byteLength":3661920,
			"byteOffset":22558800,
			"target":34963
		},
		{
			"buffer":0,
			"byteLength":14172,
			"byteOffset":26220720,
			"target":34962
		},
		{
			"buffer":0,
			"byteLength":14172,
			"byteOffset":26234892,
			"target":34962
		},
		{
			"buffer":0,
			"byteLength":9448,
			"byteOffset":26249064,
			"target":34962
		},
		{
			"buffer":0,
			"byteLength":9448,
			"byteOffset":26258512,
			"target":34962
		},
		{
			"buffer":0,
			"byteLength":3744,
			"byteOffset":26267960,
			"target":34963
		},
		{
			"buffer":0,
			"byteLength":1560,
			"byteOffset":26271704,
			"target":34962
		},
		{
			"buffer":0,
			"byteLength":1560,
			"byteOffset":26273264,
			"target":34962
		},
		{
			"buffer":0,
			"byteLength":1040,
			"byteOffset":26274824,
			"target":34962
		},
		{
			"buffer":0,
			"byteLength":1040,
			"byteOffset":26275864,
			"target":34962
		},
		{
			"buffer":0,
			"byteLength":1200,
			"byteOffset":26276904,
			"target":34963
		},
		{
			"buffer":0,
			"byteLength":288,
			"byteOffset":26278104,
			"target":34962
		},
		{
			"buffer":0,
			"byteLength":288,
			"byteOffset":26278392,
			"target":34962
		},
		{
			"buffer":0,
			"byteLength":192,
			"byteOffset":26278680,
			"target":34962
		},
		{
			"buffer":0,
			"byteLength":192,
			"byteOffset":26278872,
			"target":34962
		},
		{
			"buffer":0,
			"byteLength":72,
			"byteOffset":26279064,
			"target":34963
		},
		{
			"buffer":0,
			"byteLength":13824,
			"byteOffset":26279136,
			"target":34962
		},
		{
			"buffer":0,
			"byteLength":13824,
			"byteOffset":26292960,
			"target":34962
		},
		{
			"buffer":0,
			"byteLength":9216,
			"byteOffset":26306784,
			"target":34962
		},
		{
			"buffer":0,
			"byteLength":9216,
			"byteOffset":26316000,
			"target":34962
		},
		{
			"buffer":0,
			"byteLength":2652,
			"byteOffset":26325216,
			"target":34963
		},
		{
			"buffer":0,
			"byteLength":5832,
			"byteOffset":26327868,
			"target":34962
		},
		{
			"buffer":0,
			"byteLength":5832,
			"byteOffset":26333700,
			"target":34962
		},
		{
			"buffer":0,
			"byteLength":3888,
			"byteOffset":26339532,
			"target":34962
		},
		{
			"buffer":0,
			"byteLength":3888,
			"byteOffset":26343420,
			"target":34962
		},
		{
			"buffer":0,
			"byteLength":1200,
			"byteOffset":26347308,
			"target":34963
		},
		{
			"buffer":0,
			"byteLength":288,
			"byteOffset":26348508,
			"target":34962
		},
		{
			"buffer":0,
			"byteLength":288,
			"byteOffset":26348796,
			"target":34962
		},
		{
			"buffer":0,
			"byteLength":192,
			"byteOffset":26349084,
			"target":34962
		},
		{
			"buffer":0,
			"byteLength":288,
			"byteOffset":26349276,
			"target":34962
		},
		{
			"buffer":0,
			"byteLength":288,
			"byteOffset":26349564,
			"target":34962
		},
		{
			"buffer":0,
			"byteLength":192,
			"byteOffset":26349852,
			"target":34962
		},
		{
			"buffer":0,
			"byteLength":288,
			"byteOffset":26350044,
			"target":34962
		},
		{
			"buffer":0,
			"byteLength":288,
			"byteOffset":26350332,
			"target":34962
		},
		{
			"buffer":0,
			"byteLength":192,
			"byteOffset":26350620,
			"target":34962
		},
		{
			"buffer":0,
			"byteLength":288,
			"byteOffset":26350812,
			"target":34962
		},
		{
			"buffer":0,
			"byteLength":288,
			"byteOffset":26351100,
			"target":34962
		},
		{
			"buffer":0,
			"byteLength":192,
			"byteOffset":26351388,
			"target":34962
		},
		{
			"buffer":0,
			"byteLength":288,
			"byteOffset":26351580,
			"target":34962
		},
		{
			"buffer":0,
			"byteLength":288,
			"byteOffset":26351868,
			"target":34962
		},
		{
			"buffer":0,
			"byteLength":192,
			"byteOffset":26352156,
			"target":34962
		},
		{
			"buffer":0,
			"byteLength":288,
			"byteOffset":26352348,
			"target":34962
		},
		{
			"buffer":0,
			"byteLength":288,
			"byteOffset":26352636,
			"target":34962
		},
		{
			"buffer":0,
			"byteLength":192,
			"byteOffset":26352924,
			"target":34962
		},
		{
			"buffer":0,
			"byteLength":9552,
			"byteOffset":26353116,
			"target":34962
		},
		{
			"buffer":0,
			"byteLength":9552,
			"byteOffset":26362668,
			"target":34962
		},
		{
			"buffer":0,
			"byteLength":6368,
			"byteOffset":26372220,
			"target":34962
		},
		{
			"buffer":0,
			"byteLength":6384,
			"byteOffset":26378588,
			"target":34963
		},
		{
			"buffer":0,
			"byteLength":9048,
			"byteOffset":26384972,
			"target":34962
		},
		{
			"buffer":0,
			"byteLength":9048,
			"byteOffset":26394020,
			"target":34962
		},
		{
			"buffer":0,
			"byteLength":6032,
			"byteOffset":26403068,
			"target":34962
		},
		{
			"buffer":0,
			"byteLength":5430,
			"byteOffset":26409100,
			"target":34963
		},
		{
			"buffer":0,
			"byteLength":3024,
			"byteOffset":26414532,
			"target":34962
		},
		{
			"buffer":0,
			"byteLength":3024,
			"byteOffset":26417556,
			"target":34962
		},
		{
			"buffer":0,
			"byteLength":2016,
			"byteOffset":26420580,
			"target":34962
		},
		{
			"buffer":0,
			"byteLength":2010,
			"byteOffset":26422596,
			"target":34963
		},
		{
			"buffer":0,
			"byteLength":624,
			"byteOffset":26424608,
			"target":34962
		},
		{
			"buffer":0,
			"byteLength":624,
			"byteOffset":26425232,
			"target":34962
		},
		{
			"buffer":0,
			"byteLength":416,
			"byteOffset":26425856,
			"target":34962
		},
		{
			"buffer":0,
			"byteLength":168,
			"byteOffset":26426272,
			"target":34963
		}
	],
	"samplers":[
		{
			"magFilter":9729,
			"minFilter":9987
		}
	],
	"buffers":[
		{
			"byteLength":26426440,
			"uri":"Untitled.bin"
		}
	]
}
